<svg width="9" height="11" viewBox="0 0 9 11" fill="none" xmlns="http://www.w3.org/2000/svg">
<path d="M0.46875 6C0.727635 6 0.9375 6.20986 0.9375 6.46875V10.2188C0.9375 10.4777 0.727635 10.6875 0.46875 10.6875C0.209865 10.6875 0 10.4777 0 10.2188V6.46875C0 6.20986 0.209865 6 0.46875 6ZM4.21875 0C4.47764 0 4.6875 0.209865 4.6875 0.46875V10.2188C4.6875 10.4777 4.47764 10.6875 4.21875 10.6875C3.95986 10.6875 3.75 10.4777 3.75 10.2188V0.46875C3.75 0.209865 3.95986 0 4.21875 0ZM7.96875 3.375C8.22765 3.375 8.4375 3.58486 8.4375 3.84375V10.2188C8.4375 10.4777 8.22765 10.6875 7.96875 10.6875C7.70985 10.6875 7.5 10.4777 7.5 10.2188V3.84375C7.5 3.58486 7.70985 3.375 7.96875 3.375Z" fill="black"/>
</svg>
