<svg width="12" height="12" viewBox="0 0 12 12" fill="none" xmlns="http://www.w3.org/2000/svg">
<path d="M3.46875 2.625C4.14184 2.625 4.6875 3.17066 4.6875 3.84375V6.375H7.21875C7.89187 6.375 8.4375 6.92066 8.4375 7.59375V9.84375C8.4375 10.5169 7.89187 11.0625 7.21875 11.0625H1.21875C0.545655 11.0625 0 10.5169 0 9.84375V3.84375C0 3.17066 0.545655 2.625 1.21875 2.625H3.46875ZM0.9375 9.84375C0.9375 9.99908 1.06342 10.125 1.21875 10.125H3.75V7.3125H0.9375V9.84375ZM4.6875 10.125H7.21875C7.37408 10.125 7.5 9.99908 7.5 9.84375V7.59375C7.5 7.43842 7.37408 7.3125 7.21875 7.3125H4.6875V10.125ZM1.21875 3.5625C1.06342 3.5625 0.9375 3.68842 0.9375 3.84375V6.375H3.75V3.84375C3.75 3.68842 3.62408 3.5625 3.46875 3.5625H1.21875ZM9.84375 0C10.5169 0 11.0625 0.545655 11.0625 1.21875V3.46875C11.0625 4.14184 10.5169 4.6875 9.84375 4.6875H7.59375C6.92063 4.6875 6.375 4.14184 6.375 3.46875V1.21875C6.375 0.545655 6.92063 0 7.59375 0H9.84375ZM7.59375 0.9375C7.43842 0.9375 7.3125 1.06342 7.3125 1.21875V3.46875C7.3125 3.62408 7.43842 3.75 7.59375 3.75H9.84375C9.99908 3.75 10.125 3.62408 10.125 3.46875V1.21875C10.125 1.06342 9.99908 0.9375 9.84375 0.9375H7.59375Z" fill="black"/>
</svg>
