<svg width="12" height="8" viewBox="0 0 12 8" fill="none" xmlns="http://www.w3.org/2000/svg">
<path d="M3.206 0.00952506C3.43604 0.0466951 3.63515 0.19179 3.74139 0.399172L3.7868 0.50757L5.78998 6.69945C5.86965 6.94575 5.73452 7.21012 5.48822 7.28977C5.24201 7.3692 4.97753 7.2342 4.89789 6.98805L4.51776 5.8125H1.36541L0.906924 7.01145C0.814336 7.25303 0.542904 7.37415 0.301208 7.28175C0.059816 7.18912 -0.061348 6.91762 0.030944 6.67605L2.40326 0.471683L2.4516 0.36987C2.58061 0.14376 2.82286 0.0001425 3.08881 0L3.206 0.00952506ZM9.46892 1.3125C10.5563 1.3125 11.4377 2.19394 11.4377 3.28125V6.84375C11.4377 7.10265 11.2278 7.3125 10.9689 7.3125C10.7198 7.31227 10.5179 7.11773 10.5031 6.87233V6.34718C10.5005 6.3534 10.2204 7.02998 9.48505 7.24365C9.2992 7.28723 9.10562 7.3125 8.90642 7.3125H8.45522C7.51375 7.31227 6.75022 6.549 6.75018 5.60745C6.75018 4.79473 7.32445 4.09485 8.12125 3.9353L10.5002 3.4585V3.28125C10.5002 2.71171 10.0385 2.25 9.46892 2.25H9.05732C8.63035 2.25021 8.22617 2.44467 7.9594 2.77808L7.77265 3.01172C7.61087 3.21371 7.31552 3.24663 7.11347 3.08496C6.91158 2.92324 6.87873 2.62785 7.04022 2.42578L7.2277 2.19214C7.67237 1.63642 8.34565 1.31271 9.05732 1.3125H9.46892ZM8.30515 4.8545C7.9465 4.9264 7.68767 5.2416 7.68767 5.60745C7.68775 6.0312 8.03155 6.37477 8.45522 6.375H8.90642C9.78662 6.375 10.5002 5.66145 10.5002 4.78125V4.41504L8.30515 4.8545ZM1.72357 4.875H4.21454L3.07269 1.34619L1.72357 4.875Z" fill="black"/>
</svg>
