<svg width="11" height="12" viewBox="0 0 11 12" fill="none" xmlns="http://www.w3.org/2000/svg">
<path d="M4.56811 0.163156C4.94507 -0.0544228 5.40988 -0.0543478 5.78686 0.163156L9.74634 2.44905C10.1231 2.66678 10.3556 3.06925 10.3557 3.50446V8.07625C10.3556 8.51147 10.1232 8.914 9.74634 9.13165L5.78686 11.4176C5.40994 11.635 4.94504 11.635 4.56811 11.4176L0.609375 9.13165C0.232395 8.914 0.0001275 8.51155 0 8.07625V3.50446C5.25e-05 3.0691 0.232335 2.66673 0.609375 2.44905L4.56811 0.163156ZM5.6455 6.06062V10.4156L9.27759 8.3194C9.36429 8.26915 9.41807 8.17645 9.41822 8.07625V3.8824L5.6455 6.06062ZM0.9375 8.07625C0.937627 8.17652 0.991275 8.26922 1.07812 8.3194L4.708 10.4149V6.06062L0.9375 3.88313V8.07625ZM5.31811 0.97541C5.23117 0.925288 5.12381 0.925273 5.03686 0.97541L1.40551 3.0716L5.17675 5.24909L8.94872 3.07087L5.31811 0.97541Z" fill="black"/>
</svg>
