<svg width="11" height="11" viewBox="0 0 11 11" fill="none" xmlns="http://www.w3.org/2000/svg">
<path d="M7.12926 0.192049C7.38554 -0.0639803 7.80179 -0.0640523 8.05799 0.192049L10.4179 2.55191C10.674 2.80812 10.6738 3.22435 10.4179 3.48062L9.18734 4.71109V6.39786C9.18719 8.13224 7.90581 9.59991 6.18737 9.83436L0.531609 10.6056C0.386597 10.6253 0.240339 10.5765 0.136832 10.4731C0.0334194 10.3696 -0.0153614 10.2232 0.00426462 10.0783L0.775502 4.42251C1.01004 2.70409 2.47766 1.42264 4.21203 1.42251H5.8988L7.12926 0.192049ZM6.42541 2.22305C6.33753 2.3109 6.21787 2.35998 6.09362 2.36001H4.21203C2.94645 2.36014 1.87538 3.29529 1.70422 4.54923L1.34459 7.18596C1.23536 7.95434 0.916209 9.21051 0.910269 9.23376C0.923402 9.21659 1.47655 8.49704 2.24328 7.70226L3.51183 6.43448C3.52462 6.42171 3.53903 6.41103 3.55285 6.40005C3.45209 6.20001 3.39393 5.97432 3.39391 5.73501C3.39407 4.91708 4.0569 4.25406 4.87487 4.25406C5.69279 4.25412 6.35567 4.91712 6.35582 5.73501C6.35576 6.55299 5.69285 7.21589 4.87487 7.21596C4.63509 7.21596 4.40942 7.15739 4.2091 7.05629C4.1981 7.07016 4.1882 7.08524 4.17541 7.09806L3.05041 8.22306C2.19724 9.06599 1.3845 9.68856 1.37096 9.69891C1.38713 9.69471 2.54613 9.39951 3.32067 9.27846L6.06066 8.90564C7.31466 8.73456 8.24969 7.66341 8.24984 6.39786V4.51626C8.24991 4.39208 8.29904 4.27231 8.38686 4.18448L9.55506 3.01626L7.59359 1.05484L6.42541 2.22305ZM4.87487 5.15347C4.55396 5.15347 4.29349 5.41413 4.29332 5.73501C4.29339 6.05598 4.5539 6.31656 4.87487 6.31656C5.19578 6.31649 5.45635 6.05593 5.45641 5.73501C5.45625 5.41418 5.19572 5.15354 4.87487 5.15347Z" fill="black"/>
</svg>
