<svg width="12" height="12" viewBox="0 0 12 12" fill="none" xmlns="http://www.w3.org/2000/svg">
<path d="M4.88 1.4C5.06667 1.4 5.2 1.48 5.28 1.64L6 2.92H10.52C10.84 2.92 11.12 3.04 11.36 3.28C11.6 3.52 11.72 3.8 11.72 4.12V9.36C11.72 9.70667 11.6 10 11.36 10.24C11.12 10.48 10.84 10.6 10.52 10.6H1.52C1.17333 10.6 0.88 10.48 0.64 10.24C0.4 10 0.28 9.70667 0.28 9.36V2.64C0.28 2.29333 0.4 2 0.64 1.76C0.88 1.52 1.17333 1.4 1.52 1.4H4.88ZM1.52 2.36C1.44 2.36 1.36 2.38667 1.28 2.44C1.22667 2.49333 1.2 2.56 1.2 2.64V9.36C1.2 9.44 1.22667 9.50667 1.28 9.56C1.36 9.61333 1.42667 9.64 1.48 9.64H10.52C10.5733 9.64 10.6267 9.61333 10.68 9.56C10.76 9.50667 10.8 9.44 10.8 9.36V4.12C10.8 4.04 10.76 3.97333 10.68 3.92C10.6267 3.86667 10.5733 3.84 10.52 3.84H5.76C5.57333 3.84 5.42667 3.76 5.32 3.6L4.6 2.36H1.52Z" fill="black"/>
</svg>
