<svg width="14" height="10" viewBox="0 0 14 10" fill="none" xmlns="http://www.w3.org/2000/svg">
<path d="M2.87109 9.27734C2.26172 9.27734 1.74219 9.16016 1.3125 8.92578C0.886719 8.69141 0.560547 8.37695 0.333984 7.98242C0.111328 7.58789 0 7.15039 0 6.66992C0 6.25586 0.0820312 5.875 0.246094 5.52734C0.410156 5.17969 0.638672 4.88477 0.931641 4.64258C1.22852 4.39648 1.57227 4.2168 1.96289 4.10352C2.01367 3.52148 2.16406 2.98242 2.41406 2.48633C2.66406 1.98633 2.98828 1.55078 3.38672 1.17969C3.78906 0.808594 4.24414 0.519531 4.75195 0.3125C5.25977 0.105469 5.79688 0.00195312 6.36328 0.00195312C7.23047 0.00195312 8.00781 0.224609 8.69531 0.669922C9.38281 1.11133 9.92188 1.71875 10.3125 2.49219C10.8438 2.49219 11.334 2.57812 11.7832 2.75C12.2324 2.91797 12.623 3.15625 12.9551 3.46484C13.2871 3.76953 13.5449 4.12695 13.7285 4.53711C13.9121 4.94727 14.0039 5.39258 14.0039 5.87305C14.0039 6.35352 13.9141 6.80078 13.7344 7.21484C13.5586 7.625 13.3105 7.98438 12.9902 8.29297C12.6738 8.60156 12.3027 8.84375 11.877 9.01953C11.4512 9.19141 10.9922 9.27734 10.5 9.27734H2.87109ZM2.85938 8.33398H10.5645C11.0332 8.33398 11.4551 8.22656 11.8301 8.01172C12.2051 7.79297 12.502 7.5 12.7207 7.13281C12.9434 6.76562 13.0547 6.35547 13.0547 5.90234C13.0547 5.46094 12.9434 5.05664 12.7207 4.68945C12.498 4.31836 12.1719 4.02148 11.7422 3.79883C11.3164 3.57617 10.7988 3.46484 10.1895 3.46484C10.0098 3.46484 9.87109 3.4375 9.77344 3.38281C9.67578 3.32422 9.5918 3.22266 9.52148 3.07812C9.30273 2.62891 9.03711 2.24609 8.72461 1.92969C8.41211 1.61328 8.05859 1.37109 7.66406 1.20312C7.26953 1.03125 6.83594 0.945312 6.36328 0.945312C5.90625 0.945312 5.47656 1.0332 5.07422 1.20898C4.67188 1.38086 4.31445 1.625 4.00195 1.94141C3.68945 2.25391 3.4375 2.62109 3.24609 3.04297C3.05469 3.46484 2.94141 3.92383 2.90625 4.41992C2.89453 4.5918 2.85352 4.7207 2.7832 4.80664C2.71289 4.89258 2.5957 4.95508 2.43164 4.99414C1.95508 5.12305 1.58789 5.33398 1.33008 5.62695C1.07227 5.91992 0.943359 6.27734 0.943359 6.69922C0.943359 7.02734 1.01953 7.31445 1.17188 7.56055C1.32422 7.80664 1.54297 7.99805 1.82812 8.13477C2.11328 8.26758 2.45703 8.33398 2.85938 8.33398Z" fill="black"/>
</svg>
